<svg width="55" height="45" viewBox="0 0 55 45" fill="none" xmlns="http://www.w3.org/2000/svg">
<path d="M19.5972 7.72619C16.705 6.98237 15.5501 6.74453 14.4326 6.68604C14.2936 7.72129 13.6048 8.5627 12.6863 8.81927C12.5324 8.85996 12.3752 8.88335 12.217 8.88907C12.4354 10.6352 11.4297 12.2832 9.88257 12.7145C9.22076 12.8957 8.52346 12.8332 7.89674 12.5365C7.62825 13.3377 7.01973 13.9414 6.26988 14.1504C5.64635 14.3223 4.9863 14.2042 4.44375 13.8237C3.65409 15.3968 2.95315 17.1855 2.37529 19.1525C0.472286 25.6301 -0.419972 33.4501 0.190181 38.2964C0.658964 42.0198 2.16388 44.3947 4.35835 44.874C6.73101 45.3923 17.0531 44.3628 13.3807 40.8362C9.47832 37.0887 7.2338 34.0379 15.579 38.8295C11.9548 35.4312 9.65969 30.3608 9.65969 24.6739C9.65969 17.0975 13.7314 10.6142 19.5972 7.72619Z" fill="#FFB22C"/>
<path d="M21.1302 8.29832C15.9027 10.8721 12.2739 16.65 12.2739 23.4021C12.2739 28.4703 14.3194 32.989 17.5492 36.0176C17.5674 35.9997 17.6022 35.9688 17.6191 35.952C19.162 34.4209 20.1503 33.6556 21.418 33.1252C21.6292 33.0368 21.8482 32.9541 22.0788 32.8764C22.3095 32.7986 22.552 32.7256 22.8096 32.6535C26.0591 31.7454 30.2932 31.948 33.1121 33.1471C34.4679 33.7238 35.1937 34.2619 36.8967 35.952C36.914 35.9692 36.9331 35.9853 36.9505 36.0026C40.1713 32.9741 42.2103 28.4621 42.2103 23.4022C42.2103 16.6471 38.5785 10.867 33.3472 8.29492C33.2751 8.31459 33.2357 8.32367 33.161 8.34415C30.7886 8.9937 29.5592 9.27999 28.3189 9.47076C27.2417 9.63641 27.1769 9.63513 25.9154 9.42358C25.2024 9.30401 23.4799 8.90767 22.0875 8.54377C21.7084 8.44468 21.4541 8.38161 21.1302 8.29832ZM24.4532 15.2001H30.0311C31.8209 15.2001 33.4071 16.1234 34.4264 17.5627H20.0578C21.0771 16.1234 22.6634 15.2001 24.4532 15.2001ZM19.2614 19.1036H35.2228C35.3898 19.5739 35.5056 20.0727 35.5644 20.5918H18.9199C18.9786 20.0727 19.0945 19.5739 19.2614 19.1036ZM18.9199 22.1327H35.5644C35.5062 22.6525 35.3887 23.1515 35.2216 23.6223H19.2627C19.0956 23.1515 18.9781 22.6525 18.9199 22.1327ZM20.0578 25.1624H34.4264C33.4076 26.6018 31.8209 27.5243 30.0311 27.5243H24.4532C22.6633 27.5243 21.0767 26.6018 20.0578 25.1624Z" fill="#FFB22C"/>
<path d="M6.4173 7.87429C6.4173 6.88095 5.68838 6.07568 4.78922 6.07568C3.89005 6.07568 3.16113 6.88095 3.16113 7.87429V7.87429C3.16113 8.86764 3.89005 9.67291 4.78922 9.67291C5.68838 9.67291 6.4173 8.86764 6.4173 7.87429Z" fill="#FFB22C"/>
<path d="M8.72747 2.15833C8.72747 0.966319 7.85277 0 6.77377 0C5.69477 0 4.82007 0.966319 4.82007 2.15833C4.82007 3.35035 5.69477 4.31667 6.77377 4.31667C7.85277 4.31667 8.72747 3.35035 8.72747 2.15833Z" fill="#FFB22C"/>
<path d="M12.2774 4.07184C12.2774 3.47584 11.8401 2.99268 11.3006 2.99268C10.7611 2.99268 10.3237 3.47584 10.3237 4.07184C10.3237 4.66785 10.7611 5.15101 11.3006 5.15101C11.8401 5.15101 12.2774 4.66785 12.2774 4.07184Z" fill="#FFB22C"/>
<path d="M9.89823 8.42239C9.89823 7.72905 9.38946 7.16699 8.76186 7.16699C8.13426 7.16699 7.62549 7.72905 7.62549 8.42239C7.62549 9.11573 8.13426 9.67779 8.76186 9.67779C9.38946 9.67779 9.89823 9.11573 9.89823 8.42239Z" fill="#FFB22C"/>
<path d="M34.8057 7.72619C37.6979 6.98237 38.8528 6.74453 39.9702 6.68604C40.1093 7.72129 40.798 8.5627 41.7165 8.81927C41.8704 8.85996 42.0277 8.88335 42.1859 8.88907C41.9675 10.6352 42.9732 12.2832 44.5203 12.7145C45.1821 12.8957 45.8794 12.8332 46.5061 12.5365C46.7746 13.3377 47.3831 13.9414 48.133 14.1504C48.7565 14.3223 49.4166 14.2042 49.9591 13.8237C50.7488 15.3968 51.4497 17.1855 52.0276 19.1525C53.9306 25.6301 54.8228 33.4501 54.2127 38.2964C53.7439 42.0198 52.239 44.3947 50.0445 44.874C47.6718 45.3923 37.3498 44.3628 41.0222 40.8362C44.9245 37.0887 47.169 34.0379 38.8239 38.8295C42.448 35.4312 44.7432 30.3608 44.7432 24.6739C44.7432 17.0975 40.6714 10.6142 34.8057 7.72619Z" fill="#FFB22C"/>
<path d="M47.9858 7.87429C47.9858 6.88095 48.7147 6.07568 49.6139 6.07568C50.513 6.07568 51.2419 6.88095 51.2419 7.87429V7.87429C51.2419 8.86764 50.513 9.67291 49.6139 9.67291C48.7147 9.67291 47.9858 8.86764 47.9858 7.87429Z" fill="#FFB22C"/>
<path d="M45.6756 2.15833C45.6756 0.966319 46.5503 0 47.6293 0C48.7083 0 49.583 0.966319 49.583 2.15833C49.583 3.35035 48.7083 4.31667 47.6293 4.31667C46.5503 4.31667 45.6756 3.35035 45.6756 2.15833Z" fill="#FFB22C"/>
<path d="M42.1256 4.07184C42.1256 3.47584 42.563 2.99268 43.1025 2.99268C43.642 2.99268 44.0793 3.47584 44.0793 4.07184C44.0793 4.66785 43.642 5.15101 43.1025 5.15101C42.563 5.15101 42.1256 4.66785 42.1256 4.07184Z" fill="#FFB22C"/>
<path d="M44.5046 8.42239C44.5046 7.72905 45.0134 7.16699 45.641 7.16699C46.2686 7.16699 46.7773 7.72905 46.7773 8.42239C46.7773 9.11573 46.2686 9.67779 45.641 9.67779C45.0134 9.67779 44.5046 9.11573 44.5046 8.42239Z" fill="#FFB22C"/>
</svg>
